<svg width="24" height="24" viewBox="0 0 24 24" fill="none" xmlns="http://www.w3.org/2000/svg">
    <rect width="24" height="24" rx="12" fill="white" fill-opacity="0.64"/>
    <path d="M11.7337 7.75276L12.0007 8.10951L12.2676 7.75276C12.8809 6.93289 13.8639 6.39974 14.9607 6.39974C16.8217 6.39974 18.334 7.91561 18.334 9.79307C18.334 10.5502 18.2132 11.2489 18.0035 11.8971L18.0028 11.8993C17.5 13.4904 16.4697 14.7728 15.3576 15.7286C14.244 16.6856 13.0676 17.2986 12.3066 17.5575L12.3066 17.5575L12.303 17.5587C12.2365 17.5822 12.1268 17.5997 12.0007 17.5997C11.8745 17.5997 11.7648 17.5822 11.6983 17.5587L11.6983 17.5587L11.6947 17.5575C10.9337 17.2986 9.75732 16.6856 8.64375 15.7286C7.53165 14.7728 6.50129 13.4904 5.99849 11.8993L5.9985 11.8993L5.9978 11.8971C5.78808 11.2489 5.66732 10.5502 5.66732 9.79307C5.66732 7.91561 7.17964 6.39974 9.04065 6.39974C10.1374 6.39974 11.1204 6.93289 11.7337 7.75276Z" fill="#EF4444" stroke="#EF4444" stroke-width="0.666667"/>
</svg>
