<svg width="16" height="16" viewBox="0 0 16 16" fill="none" xmlns="http://www.w3.org/2000/svg">
    <rect width="16" height="16" rx="2" fill="#F59E0B"/>
    <path d="M8.86498 3.75501L9.74499 5.51501C9.86498 5.76001 10.185 5.99501 10.455 6.04001L12.05 6.30501C13.07 6.47501 13.31 7.21501 12.575 7.94501L11.335 9.18501C11.125 9.39501 11.01 9.80001 11.075 10.09L11.43 11.625C11.71 12.84 11.065 13.31 9.98998 12.675L8.49499 11.79C8.22499 11.63 7.77999 11.63 7.50499 11.79L6.00999 12.675C4.93999 13.31 4.28999 12.835 4.56999 11.625L4.92499 10.09C4.98998 9.80001 4.87499 9.39501 4.66499 9.18501L3.42499 7.94501C2.69499 7.21501 2.92999 6.47501 3.94999 6.30501L5.54499 6.04001C5.80999 5.99501 6.12999 5.76001 6.24998 5.51501L7.12999 3.75501C7.60999 2.80001 8.38999 2.80001 8.86498 3.75501Z" fill="white"/>
</svg>
